<?xml version="1.0" encoding="UTF-8"?>
<svg xmlns="http://www.w3.org/2000/svg" xmlns:xlink="http://www.w3.org/1999/xlink" width="365pt" height="116.02pt" viewBox="0 0 365 116.02" version="1.1">
<defs>
<clipPath id="clip1">
  <path d="M 88 105 L 97 105 L 97 116.019531 L 88 116.019531 Z M 88 105 "/>
</clipPath>
<clipPath id="clip2">
  <path d="M 154 105 L 164 105 L 164 116.019531 L 154 116.019531 Z M 154 105 "/>
</clipPath>
<clipPath id="clip3">
  <path d="M 199 105 L 208 105 L 208 116.019531 L 199 116.019531 Z M 199 105 "/>
</clipPath>
<clipPath id="clip4">
  <path d="M 232 105 L 240 105 L 240 116.019531 L 232 116.019531 Z M 232 105 "/>
</clipPath>
<clipPath id="clip5">
  <path d="M 244 105 L 254 105 L 254 116.019531 L 244 116.019531 Z M 244 105 "/>
</clipPath>
<clipPath id="clip6">
  <path d="M 270 105 L 279 105 L 279 116.019531 L 270 116.019531 Z M 270 105 "/>
</clipPath>
<clipPath id="clip7">
  <path d="M 303 105 L 313 105 L 313 116.019531 L 303 116.019531 Z M 303 105 "/>
</clipPath>
<clipPath id="clip8">
  <path d="M 332 105 L 340 105 L 340 116.019531 L 332 116.019531 Z M 332 105 "/>
</clipPath>
</defs>
<g id="surface1">
<g clip-path="url(#clip1)" clip-rule="nonzero">
<path style=" stroke:none;fill-rule:nonzero;fill:rgb(13.299561%,12.199402%,12.5%);fill-opacity:1;" d="M 96.332031 107.667969 C 95.921875 107.453125 95.234375 107.0625 94 107.0625 C 92.191406 107.0625 91.042969 108.402344 91.042969 110.539063 C 91.042969 112.601563 92.339844 113.992188 94.050781 113.992188 C 95.363281 113.992188 96.136719 113.535156 96.398438 113.433594 L 96.496094 115.640625 C 96.039063 115.78125 95.082031 116.019531 93.625 116.019531 C 90.484375 116.019531 88.277344 113.859375 88.277344 110.507813 C 88.277344 106.632813 91.105469 105.089844 93.441406 105.089844 C 95.148438 105.089844 96.019531 105.441406 96.460938 105.605469 L 96.332031 107.667969 "/>
</g>
<path style=" stroke:none;fill-rule:nonzero;fill:rgb(13.299561%,12.199402%,12.5%);fill-opacity:1;" d="M 105.617188 107.304688 L 105.582031 107.304688 L 104.21875 111.691406 L 106.800781 111.691406 Z M 107.328125 113.476563 L 103.730469 113.476563 L 102.945313 115.835938 L 100.34375 115.835938 L 104.160156 105.273438 L 107.113281 105.273438 L 110.796875 115.835938 L 108.035156 115.835938 L 107.328125 113.476563 "/>
<path style=" stroke:none;fill-rule:nonzero;fill:rgb(13.299561%,12.199402%,12.5%);fill-opacity:1;" d="M 117.960938 113.992188 L 118.808594 113.992188 C 120.765625 113.992188 121.636719 112.570313 121.636719 110.644531 C 121.636719 108.464844 120.734375 107.121094 118.644531 107.121094 L 117.957031 107.121094 Z M 115.265625 105.273438 L 119.339844 105.273438 C 121.917969 105.273438 124.464844 106.667969 124.464844 110.644531 C 124.464844 114.296875 121.886719 115.835938 118.992188 115.835938 L 115.265625 115.835938 L 115.265625 105.273438 "/>
<path style=" stroke:none;fill-rule:nonzero;fill:rgb(13.299561%,12.199402%,12.5%);fill-opacity:1;" d="M 129.183594 105.273438 L 135.804688 105.273438 L 135.804688 107.121094 L 131.78125 107.121094 L 131.78125 109.480469 L 135.613281 109.480469 L 135.613281 111.324219 L 131.78125 111.324219 L 131.78125 113.992188 L 136.003906 113.992188 L 136.003906 115.835938 L 129.183594 115.835938 L 129.183594 105.273438 "/>
<path style=" stroke:none;fill-rule:nonzero;fill:rgb(13.299561%,12.199402%,12.5%);fill-opacity:1;" d="M 140.949219 105.273438 L 144.105469 105.273438 L 147.441406 112.601563 L 147.476563 112.601563 L 147.476563 105.273438 L 149.839844 105.273438 L 149.839844 115.835938 L 146.652344 115.835938 L 143.34375 108.195313 L 143.316406 108.195313 L 143.316406 115.835938 L 140.949219 115.835938 L 140.949219 105.273438 "/>
<g clip-path="url(#clip2)" clip-rule="nonzero">
<path style=" stroke:none;fill-rule:nonzero;fill:rgb(13.299561%,12.199402%,12.5%);fill-opacity:1;" d="M 162.96875 107.667969 C 162.558594 107.453125 161.871094 107.0625 160.640625 107.0625 C 158.832031 107.0625 157.679688 108.402344 157.679688 110.539063 C 157.679688 112.601563 158.976563 113.992188 160.691406 113.992188 C 162.003906 113.992188 162.777344 113.535156 163.039063 113.433594 L 163.140625 115.640625 C 162.675781 115.78125 161.722656 116.019531 160.261719 116.019531 C 157.121094 116.019531 154.921875 113.859375 154.921875 110.507813 C 154.921875 106.632813 157.75 105.089844 160.078125 105.089844 C 161.789063 105.089844 162.660156 105.441406 163.101563 105.605469 L 162.96875 107.667969 "/>
</g>
<path style=" stroke:none;fill-rule:nonzero;fill:rgb(13.299561%,12.199402%,12.5%);fill-opacity:1;" d="M 167.640625 105.273438 L 174.265625 105.273438 L 174.265625 107.121094 L 170.238281 107.121094 L 170.238281 109.480469 L 174.0625 109.480469 L 174.0625 111.324219 L 170.238281 111.324219 L 170.238281 113.992188 L 174.464844 113.992188 L 174.464844 115.835938 L 167.640625 115.835938 L 167.640625 105.273438 "/>
<path style=" stroke:none;fill-rule:nonzero;fill:rgb(13.299561%,12.199402%,12.5%);fill-opacity:1;" d="M 190.464844 110.132813 C 191.300781 110.132813 191.910156 109.597656 191.910156 108.617188 C 191.910156 107.570313 191.386719 107.113281 190.316406 107.113281 L 189.609375 107.113281 L 189.609375 110.128906 L 190.464844 110.128906 Z M 187.011719 105.273438 L 190.683594 105.273438 C 193.125 105.273438 194.601563 106.347656 194.601563 108.628906 C 194.601563 110.433594 193.523438 111.980469 191.011719 111.980469 L 189.710938 111.980469 L 189.710938 115.835938 L 187.011719 115.835938 L 187.011719 105.273438 "/>
<g clip-path="url(#clip3)" clip-rule="nonzero">
<path style=" stroke:none;fill-rule:nonzero;fill:rgb(13.299561%,12.199402%,12.5%);fill-opacity:1;" d="M 207.171875 107.667969 C 206.753906 107.453125 206.0625 107.0625 204.832031 107.0625 C 203.023438 107.0625 201.871094 108.402344 201.871094 110.539063 C 201.871094 112.601563 203.171875 113.992188 204.878906 113.992188 C 206.195313 113.992188 206.96875 113.535156 207.230469 113.433594 L 207.328125 115.640625 C 206.863281 115.78125 205.910156 116.019531 204.457031 116.019531 C 201.3125 116.019531 199.109375 113.859375 199.109375 110.507813 C 199.109375 106.632813 201.9375 105.089844 204.269531 105.089844 C 205.980469 105.089844 206.851563 105.441406 207.292969 105.605469 L 207.171875 107.667969 "/>
</g>
<path style=" stroke:none;fill-rule:nonzero;fill:rgb(13.299561%,12.199402%,12.5%);fill-opacity:1;" d="M 214.757813 114.050781 L 215.511719 114.050781 C 215.867188 114.050781 217.234375 114.050781 217.234375 112.6875 C 217.234375 111.765625 216.675781 111.296875 215.785156 111.296875 L 214.757813 111.296875 Z M 214.757813 109.574219 L 215.410156 109.574219 C 216.957031 109.574219 217.003906 108.464844 217.003906 108.269531 C 217.003906 107.890625 216.769531 106.996094 215.464844 106.996094 L 214.761719 106.996094 L 214.761719 109.574219 Z M 212.160156 105.273438 L 216.429688 105.273438 C 218.847656 105.273438 219.605469 106.777344 219.605469 107.90625 C 219.605469 109.589844 218.1875 110.257813 217.535156 110.324219 L 217.535156 110.363281 C 218.832031 110.601563 219.835938 111.253906 219.835938 112.921875 C 219.835938 115.59375 216.960938 115.839844 216.285156 115.839844 L 212.164063 115.839844 L 212.160156 105.273438 "/>
<g clip-path="url(#clip4)" clip-rule="nonzero">
<path style=" stroke:none;fill-rule:nonzero;fill:rgb(13.299561%,12.199402%,12.5%);fill-opacity:1;" d="M 238.683594 107.421875 C 238.042969 107.113281 237.140625 106.878906 236.410156 106.878906 C 235.546875 106.878906 234.890625 107.238281 234.890625 108.027344 C 234.890625 109.945313 239.40625 109.058594 239.40625 112.8125 C 239.40625 114.804688 237.679688 116.015625 235.398438 116.015625 C 234.003906 116.015625 232.796875 115.714844 232.304688 115.574219 L 232.449219 113.515625 C 233.257813 113.804688 233.964844 114.164063 234.96875 114.164063 C 235.816406 114.164063 236.644531 113.765625 236.644531 112.914063 C 236.644531 110.867188 232.128906 111.867188 232.128906 108.097656 C 232.128906 107.777344 232.253906 105.082031 236.101563 105.082031 C 237.160156 105.082031 237.8125 105.253906 238.800781 105.449219 L 238.683594 107.421875 "/>
</g>
<g clip-path="url(#clip5)" clip-rule="nonzero">
<path style=" stroke:none;fill-rule:nonzero;fill:rgb(13.299561%,12.199402%,12.5%);fill-opacity:1;" d="M 249.085938 114.234375 C 250.648438 114.234375 251.203125 112.582031 251.203125 110.554688 C 251.203125 108.527344 250.648438 106.878906 249.085938 106.878906 C 247.527344 106.878906 246.980469 108.527344 246.980469 110.554688 C 246.980469 112.582031 247.523438 114.234375 249.085938 114.234375 M 249.085938 105.09375 C 252.386719 105.09375 253.964844 107.457031 253.964844 110.554688 C 253.964844 113.660156 252.386719 116.015625 249.085938 116.015625 C 245.789063 116.015625 244.222656 113.65625 244.222656 110.554688 C 244.21875 107.453125 245.785156 105.09375 249.085938 105.09375 "/>
</g>
<path style=" stroke:none;fill-rule:nonzero;fill:rgb(13.299561%,12.199402%,12.5%);fill-opacity:1;" d="M 259.09375 105.273438 L 261.789063 105.273438 L 261.789063 113.929688 L 265.585938 113.929688 L 265.585938 115.835938 L 259.09375 115.835938 L 259.09375 105.273438 "/>
<g clip-path="url(#clip6)" clip-rule="nonzero">
<path style=" stroke:none;fill-rule:nonzero;fill:rgb(13.299561%,12.199402%,12.5%);fill-opacity:1;" d="M 270.164063 105.273438 L 272.867188 105.273438 L 272.867188 112.398438 C 272.867188 113.457031 273.292969 114.109375 274.378906 114.109375 C 275.460938 114.109375 275.890625 113.460938 275.890625 112.398438 L 275.890625 105.273438 L 278.59375 105.273438 L 278.59375 112.003906 C 278.59375 114.621094 276.964844 116.015625 274.382813 116.015625 C 271.796875 116.015625 270.171875 114.621094 270.171875 112.003906 L 270.171875 105.273438 L 270.164063 105.273438 "/>
</g>
<path style=" stroke:none;fill-rule:nonzero;fill:rgb(13.299561%,12.199402%,12.5%);fill-opacity:1;" d="M 285.601563 107.179688 L 283.109375 107.179688 L 283.109375 105.273438 L 290.796875 105.273438 L 290.796875 107.179688 L 288.296875 107.179688 L 288.296875 115.835938 L 285.601563 115.835938 L 285.601563 107.179688 "/>
<path style=" stroke:none;fill-rule:nonzero;fill:rgb(13.299561%,12.199402%,12.5%);fill-opacity:1;" d="M 295.433594 105.273438 L 298.128906 105.273438 L 298.128906 115.835938 L 295.433594 115.835938 L 295.433594 105.273438 "/>
<g clip-path="url(#clip7)" clip-rule="nonzero">
<path style=" stroke:none;fill-rule:nonzero;fill:rgb(13.299561%,12.199402%,12.5%);fill-opacity:1;" d="M 308.113281 114.234375 C 309.671875 114.234375 310.234375 112.582031 310.234375 110.554688 C 310.234375 108.527344 309.671875 106.878906 308.113281 106.878906 C 306.554688 106.878906 306.015625 108.527344 306.015625 110.554688 C 306.015625 112.582031 306.554688 114.234375 308.113281 114.234375 M 308.113281 105.09375 C 311.414063 105.09375 312.992188 107.457031 312.992188 110.554688 C 312.992188 113.660156 311.414063 116.015625 308.113281 116.015625 C 304.8125 116.015625 303.25 113.65625 303.25 110.554688 C 303.25 107.457031 304.8125 105.09375 308.113281 105.09375 "/>
</g>
<path style=" stroke:none;fill-rule:nonzero;fill:rgb(13.299561%,12.199402%,12.5%);fill-opacity:1;" d="M 318.074219 105.273438 L 321.230469 105.273438 L 324.566406 112.601563 L 324.601563 112.601563 L 324.601563 105.273438 L 326.96875 105.273438 L 326.96875 115.835938 L 323.777344 115.835938 L 320.472656 108.195313 L 320.445313 108.195313 L 320.445313 115.835938 L 318.074219 115.835938 L 318.074219 105.273438 "/>
<g clip-path="url(#clip8)" clip-rule="nonzero">
<path style=" stroke:none;fill-rule:nonzero;fill:rgb(13.299561%,12.199402%,12.5%);fill-opacity:1;" d="M 338.617188 107.421875 C 337.976563 107.113281 337.070313 106.878906 336.347656 106.878906 C 335.476563 106.878906 334.820313 107.238281 334.820313 108.027344 C 334.820313 109.945313 339.339844 109.058594 339.339844 112.8125 C 339.339844 114.804688 337.613281 116.015625 335.332031 116.015625 C 333.929688 116.015625 332.730469 115.714844 332.234375 115.574219 L 332.382813 113.515625 C 333.183594 113.804688 333.894531 114.164063 334.894531 114.164063 C 335.75 114.164063 336.570313 113.765625 336.570313 112.914063 C 336.570313 110.867188 332.050781 111.867188 332.050781 108.097656 C 332.050781 107.777344 332.1875 105.082031 336.03125 105.082031 C 337.078125 105.082031 337.738281 105.253906 338.726563 105.449219 L 338.617188 107.421875 "/>
</g>
<path style=" stroke:none;fill-rule:nonzero;fill:rgb(88.999939%,11.399841%,21.998596%);fill-opacity:1;" d="M 8.039063 42.210938 C 8.039063 59.445313 16.652344 77.265625 35.761719 77.265625 C 54.863281 77.265625 63.480469 59.441406 63.480469 42.210938 C 63.480469 24.96875 54.867188 7.152344 35.761719 7.152344 C 16.65625 7.152344 8.039063 24.96875 8.039063 42.210938 Z M 35.761719 0.160156 C 60.222656 0.160156 71.75 20.195313 71.519531 42.210938 C 71.289063 67.136719 59.175781 84.253906 35.761719 84.253906 C 12.351563 84.253906 0.238281 67.136719 0.00390625 42.210938 C -0.226563 20.195313 11.296875 0.160156 35.761719 0.160156 "/>
<path style=" stroke:none;fill-rule:nonzero;fill:rgb(88.999939%,11.399841%,21.998596%);fill-opacity:1;" d="M 88.171875 36.738281 C 88.171875 30.210938 88.171875 27.761719 87.707031 23.457031 L 95.046875 23.457031 L 95.046875 34.875 L 95.28125 34.875 C 97.957031 28.234375 102.96875 22.058594 110.539063 22.058594 C 112.285156 22.058594 114.382813 22.410156 115.664063 22.753906 L 115.664063 30.449219 C 114.144531 29.980469 112.171875 29.746094 110.308594 29.746094 C 98.664063 29.746094 95.519531 42.789063 95.519531 53.507813 L 95.519531 82.863281 L 88.179688 82.863281 L 88.179688 36.738281 L 88.171875 36.738281 "/>
<path style=" stroke:none;fill-rule:nonzero;fill:rgb(88.999939%,11.399841%,21.998596%);fill-opacity:1;" d="M 184.734375 10.644531 C 179.601563 7.960938 172.269531 7.152344 166.5625 7.152344 C 145.476563 7.152344 133.597656 22.0625 133.597656 42.210938 C 133.597656 62.710938 145.128906 77.269531 166.5625 77.269531 C 171.917969 77.269531 180.070313 76.574219 184.734375 73.777344 L 185.191406 80.765625 C 180.765625 83.445313 171.6875 84.253906 166.5625 84.253906 C 140.933594 84.253906 125.558594 67.367188 125.558594 42.210938 C 125.558594 17.519531 141.402344 0.160156 166.5625 0.160156 C 171.335938 0.160156 181.007813 0.972656 185.191406 3.191406 L 184.734375 10.644531 "/>
<path style=" stroke:none;fill-rule:nonzero;fill:rgb(88.999939%,11.399841%,21.998596%);fill-opacity:1;" d="M 235.351563 9.25 L 217.644531 54.089844 L 252.9375 54.089844 Z M 231.390625 1.558594 L 240.476563 1.558594 L 272.734375 82.863281 L 264.347656 82.863281 L 255.613281 61.078125 L 214.613281 61.078125 L 205.882813 82.863281 L 198.078125 82.863281 L 231.390625 1.558594 "/>
<path style=" stroke:none;fill-rule:nonzero;fill:rgb(88.999939%,11.399841%,21.998596%);fill-opacity:1;" d="M 293.984375 75.867188 L 300.621094 75.867188 C 323.679688 75.867188 338.710938 66.550781 338.710938 41.628906 C 338.710938 16.820313 323.921875 8.550781 305.746094 8.550781 L 293.984375 8.550781 Z M 285.945313 1.558594 L 306.09375 1.558594 C 335.21875 1.558594 346.746094 18.332031 346.746094 42.097656 C 346.746094 71.5625 327.066406 82.863281 300.15625 82.863281 L 285.945313 82.863281 L 285.945313 1.558594 "/>
<path style=" stroke:none;fill-rule:nonzero;fill:rgb(0.799561%,0.799561%,0.799561%);fill-opacity:1;" d="M 357.21875 0.00390625 L 359.253906 0.00390625 L 361.128906 4.855469 L 362.960938 0.00390625 L 365 0.00390625 L 365 7.175781 L 363.691406 7.175781 L 363.691406 1.699219 L 363.660156 1.699219 L 361.640625 7.175781 L 360.574219 7.175781 L 358.5625 1.699219 L 358.53125 1.699219 L 358.53125 7.175781 L 357.21875 7.175781 Z M 352.011719 1.214844 L 349.8125 1.214844 L 349.8125 0.00390625 L 355.535156 0.00390625 L 355.535156 1.214844 L 353.328125 1.214844 L 353.328125 7.171875 L 352.011719 7.171875 L 352.011719 1.214844 "/>
</g>
</svg>
